<svg xmlns="http://www.w3.org/2000/svg" viewBox="0 0 96 96" fill="none">
  <rect x="6" y="6" width="84" height="84" rx="26" fill="#f3faee"/>
  <circle cx="48" cy="48" r="31" fill="#ffffff" stroke="#dcecf2" stroke-width="2"/>
  <path d="M18 66c9.7-13.4 22.4-18.1 38.1-14.1 7.4 1.9 14.1.6 20.2-3.8" stroke="#0b72d9" stroke-width="4" stroke-linecap="round"/>
  <path d="M24 72h50" stroke="#63b600" stroke-width="4" stroke-linecap="round"/>
  <path d="M45 24v34" stroke="#0b5f4a" stroke-width="4" stroke-linecap="round"/>
  <path d="M45 26c-9.7 0-16.1 5.3-19.3 16 7.6-4 14-3.8 19.3.5 5.3-4.3 11.7-4.5 19.3-.5C61.1 31.3 54.7 26 45 26Z" fill="#63b600"/>
  <path d="M28 58c5.3-5.7 11.9-8.1 19.7-7.1" stroke="#0b72d9" stroke-width="3" stroke-linecap="round"/>
</svg>
